<?xml version="1.0"?>
<svg xmlns:rdf="http://www.w3.org/1999/02/22-rdf-syntax-ns#" xmlns="http://www.w3.org/2000/svg" xmlns:cc="http://creativecommons.org/ns#" xmlns:xlink="http://www.w3.org/1999/xlink" xmlns:dc="http://purl.org/dc/elements/1.1/" xmlns:svg="http://www.w3.org/2000/svg" id="svg2" viewBox="0 0 1000 750" version="1.0">
  <defs id="defs27">
    <linearGradient id="linearGradient3779" gradientUnits="userSpaceOnUse" y1="375" gradientTransform="matrix(.75 0 0 1.3333 -750 0)" x2="1e3" y2="375">
      <stop id="stop3775" stop-color="#009c00" offset="0"/>
      <stop id="stop3777" stop-color="#38ff38" offset="1"/>
    </linearGradient>
  </defs>
  <rect id="rect1317" fill-rule="evenodd" transform="rotate(-90)" height="1e3" width="750" y="0" x="-750" fill="url(#linearGradient3779)"/>
  <g id="layer1" fill-opacity=".5">
    <path id="path3128" d="m159.65 253.45a1.4677 1.3046 0 1 1 -2.9354 0 1.4677 1.3046 0 1 1 2.9354 0z" fill-opacity="1" fill-rule="evenodd" transform="matrix(2.7254 0 0 3.066 -285.35 -402.08)" fill="#fff"/>
    <path id="path2196" stroke="#fff" stroke-width="3.0052" fill="none" d="m66.119 522.44h121.17v-291.55h-120.45"/>
    <path id="path2198" stroke="#fff" stroke-width="3.0052" fill="none" d="m67.06 307.54h42.207l-1.3688 134.14-42.432-0.00002"/>
    <path id="path2200" stroke="#fff" stroke-width="3.0052" fill="none" d="m64.835 348.61h-21.9v53.382l21.9-0.00002"/>
    <path id="path2206" stroke="#fff" stroke-width="3.0052" fill="none" d="m187.06 427.34c38.325-22.242 36.793-82.351-0.16337-104.25"/>
    <path id="path3117" stroke="#fff" stroke-width="3.0052" fill="none" d="m66.892 58.792s8.0938-1.9306 10.099-10.396"/>
    <path id="path3120" stroke="#fff" stroke-width="3.0052" fill="none" d="m76.35 702.94s-1.9306-8.0938-10.396-10.099"/>
    <path id="path3122" stroke="#fff" stroke-width="3.0052" fill="none" d="m938.01 692.05s-8.0938 1.9306-10.099 10.396"/>
    <path id="path2194" stroke="#fff" stroke-width="3.0052" fill="none" d="m66.579 702.43v-654.27l870.54 1.3688 1.3688 652.9h-871.9z"/>
    <path id="path2212" stroke-linejoin="round" d="m370.97 254.39a34.843 35.526 0 1 1 -69.686 0 34.843 35.526 0 1 1 69.686 0z" transform="matrix(1.9081 0 0 1.8714 -141.37 -101.07)" stroke="#fff" stroke-width="1.6054" fill="none"/>
    <path id="path3091" stroke="#fff" stroke-width="3.0052" fill="none" d="m938.03 522.6-118.88-0.16336v-291.55h118.33"/>
    <path id="path3093" stroke="#fff" stroke-width="3.0052" fill="none" d="m938.23 307.54h-41.063l1.3688 134.14 39.491-0.00002"/>
    <path id="path3095" stroke="#fff" stroke-width="3.0052" fill="none" d="m937.64 348.61h23.861v53.382l-23.371-0.00002"/>
    <path id="path3097" stroke="#fff" stroke-width="3.0052" fill="none" d="m818.88 427.34c-38.325-22.242-36.793-81.534 0.16335-103.43"/>
    <path id="path3107" stroke="#fff" stroke-width="3.0052" fill="none" d="m500 48.163v652.9"/>
    <path id="path3124" stroke="#fff" stroke-width="3.0052" fill="none" d="m925.8 50.03s1.9306 8.0938 10.396 10.099"/>
    <path id="path3126" d="m514.92 253.57a1.06 1.3454 0 1 1 -2.12 0 1.06 1.3454 0 1 1 2.12 0z" fill-opacity="1" fill-rule="evenodd" transform="matrix(3.7736 0 0 2.9731 -1077.9 -378.9)" fill="#fff"/>
    <path id="path3130" d="m337.5 253.03a1.3664 1.3664 0 1 1 -2.7328 0 1.3664 1.3664 0 1 1 2.7328 0z" fill-opacity="1" fill-rule="evenodd" transform="matrix(2.9274 0 0 2.9274 -484 -365.72)" fill="#fff"/>
  </g>
  <metadata>
    <rdf:RDF>
      <cc:Work>
        <dc:format>image/svg+xml</dc:format>
        <dc:type rdf:resource="http://purl.org/dc/dcmitype/StillImage"/>
        <cc:license rdf:resource="http://creativecommons.org/licenses/publicdomain/"/>
        <dc:publisher>
          <cc:Agent rdf:about="http://openclipart.org/">
            <dc:title>Openclipart</dc:title>
          </cc:Agent>
        </dc:publisher>
        <dc:title>Football pitch</dc:title>
        <dc:date>2012-05-07T01:48:37</dc:date>
        <dc:description>A simple football (soccer) pitch.</dc:description>
        <dc:source>http://openclipart.org/detail/169899/football-pitch-by-tagawa</dc:source>
        <dc:creator>
          <cc:Agent>
            <dc:title>tagawa</dc:title>
          </cc:Agent>
        </dc:creator>
        <dc:subject>
          <rdf:Bag>
            <rdf:li>clip art</rdf:li>
            <rdf:li>clipart</rdf:li>
            <rdf:li>field</rdf:li>
            <rdf:li>football</rdf:li>
            <rdf:li>pitch</rdf:li>
            <rdf:li>soccer</rdf:li>
          </rdf:Bag>
        </dc:subject>
      </cc:Work>
      <cc:License rdf:about="http://creativecommons.org/licenses/publicdomain/">
        <cc:permits rdf:resource="http://creativecommons.org/ns#Reproduction"/>
        <cc:permits rdf:resource="http://creativecommons.org/ns#Distribution"/>
        <cc:permits rdf:resource="http://creativecommons.org/ns#DerivativeWorks"/>
      </cc:License>
    </rdf:RDF>
  </metadata>
</svg>
